<mxfile host="app.diagrams.net" modified="2023-10-10T17:20:45.538Z" agent="Mozilla/5.0 (Windows NT 10.0; Win64; x64) AppleWebKit/537.36 (KHTML, like Gecko) Chrome/117.0.0.0 Safari/537.36" etag="wGuiR0O3LNZOiwmGJVcn" version="22.0.4" type="device">
  <diagram id="C5RBs43oDa-KdzZeNtuy" name="Page-1">
    <mxGraphModel dx="473" dy="780" grid="1" gridSize="10" guides="1" tooltips="1" connect="1" arrows="1" fold="1" page="1" pageScale="1" pageWidth="827" pageHeight="1169" math="0" shadow="0">
      <root>
        <mxCell id="WIyWlLk6GJQsqaUBKTNV-0" />
        <mxCell id="WIyWlLk6GJQsqaUBKTNV-1" parent="WIyWlLk6GJQsqaUBKTNV-0" />
        <mxCell id="gm-yubCqo1Sg5wJiPhqE-2" value="" style="edgeStyle=orthogonalEdgeStyle;rounded=0;orthogonalLoop=1;jettySize=auto;html=1;" edge="1" parent="WIyWlLk6GJQsqaUBKTNV-1" source="gm-yubCqo1Sg5wJiPhqE-0" target="gm-yubCqo1Sg5wJiPhqE-1">
          <mxGeometry relative="1" as="geometry" />
        </mxCell>
        <mxCell id="gm-yubCqo1Sg5wJiPhqE-0" value="Inicio" style="strokeWidth=2;html=1;shape=mxgraph.flowchart.terminator;whiteSpace=wrap;" vertex="1" parent="WIyWlLk6GJQsqaUBKTNV-1">
          <mxGeometry x="160" y="20" width="140" height="60" as="geometry" />
        </mxCell>
        <mxCell id="gm-yubCqo1Sg5wJiPhqE-4" style="edgeStyle=orthogonalEdgeStyle;rounded=0;orthogonalLoop=1;jettySize=auto;html=1;" edge="1" parent="WIyWlLk6GJQsqaUBKTNV-1" source="gm-yubCqo1Sg5wJiPhqE-1" target="gm-yubCqo1Sg5wJiPhqE-3">
          <mxGeometry relative="1" as="geometry" />
        </mxCell>
        <mxCell id="gm-yubCqo1Sg5wJiPhqE-1" value="distancia decimal" style="rounded=0;whiteSpace=wrap;html=1;" vertex="1" parent="WIyWlLk6GJQsqaUBKTNV-1">
          <mxGeometry x="170" y="100" width="120" height="60" as="geometry" />
        </mxCell>
        <mxCell id="gm-yubCqo1Sg5wJiPhqE-11" style="edgeStyle=orthogonalEdgeStyle;rounded=0;orthogonalLoop=1;jettySize=auto;html=1;" edge="1" parent="WIyWlLk6GJQsqaUBKTNV-1" source="gm-yubCqo1Sg5wJiPhqE-3" target="gm-yubCqo1Sg5wJiPhqE-5">
          <mxGeometry relative="1" as="geometry" />
        </mxCell>
        <mxCell id="gm-yubCqo1Sg5wJiPhqE-3" value="velocidad decimal" style="rounded=0;whiteSpace=wrap;html=1;" vertex="1" parent="WIyWlLk6GJQsqaUBKTNV-1">
          <mxGeometry x="170" y="180" width="120" height="60" as="geometry" />
        </mxCell>
        <mxCell id="gm-yubCqo1Sg5wJiPhqE-12" style="edgeStyle=orthogonalEdgeStyle;rounded=0;orthogonalLoop=1;jettySize=auto;html=1;" edge="1" parent="WIyWlLk6GJQsqaUBKTNV-1" source="gm-yubCqo1Sg5wJiPhqE-5" target="gm-yubCqo1Sg5wJiPhqE-6">
          <mxGeometry relative="1" as="geometry" />
        </mxCell>
        <mxCell id="gm-yubCqo1Sg5wJiPhqE-5" value="tiempo decimal" style="whiteSpace=wrap;html=1;" vertex="1" parent="WIyWlLk6GJQsqaUBKTNV-1">
          <mxGeometry x="170" y="260" width="120" height="60" as="geometry" />
        </mxCell>
        <mxCell id="gm-yubCqo1Sg5wJiPhqE-13" style="edgeStyle=orthogonalEdgeStyle;rounded=0;orthogonalLoop=1;jettySize=auto;html=1;" edge="1" parent="WIyWlLk6GJQsqaUBKTNV-1" source="gm-yubCqo1Sg5wJiPhqE-6" target="gm-yubCqo1Sg5wJiPhqE-10">
          <mxGeometry relative="1" as="geometry" />
        </mxCell>
        <mxCell id="gm-yubCqo1Sg5wJiPhqE-6" value="Imprimir (&quot;Dime la distancia&quot;)" style="shape=parallelogram;perimeter=parallelogramPerimeter;whiteSpace=wrap;html=1;fixedSize=1;" vertex="1" parent="WIyWlLk6GJQsqaUBKTNV-1">
          <mxGeometry x="110" y="340" width="240" height="60" as="geometry" />
        </mxCell>
        <mxCell id="gm-yubCqo1Sg5wJiPhqE-16" style="edgeStyle=orthogonalEdgeStyle;rounded=0;orthogonalLoop=1;jettySize=auto;html=1;" edge="1" parent="WIyWlLk6GJQsqaUBKTNV-1" source="gm-yubCqo1Sg5wJiPhqE-8" target="gm-yubCqo1Sg5wJiPhqE-15">
          <mxGeometry relative="1" as="geometry" />
        </mxCell>
        <mxCell id="gm-yubCqo1Sg5wJiPhqE-8" value="Imprimir (&quot;Dime la Velocidad media&quot;)" style="shape=parallelogram;perimeter=parallelogramPerimeter;whiteSpace=wrap;html=1;fixedSize=1;" vertex="1" parent="WIyWlLk6GJQsqaUBKTNV-1">
          <mxGeometry x="77.5" y="510" width="265" height="60" as="geometry" />
        </mxCell>
        <mxCell id="gm-yubCqo1Sg5wJiPhqE-10" value="Leer (distancia)" style="shape=parallelogram;perimeter=parallelogramPerimeter;whiteSpace=wrap;html=1;fixedSize=1;" vertex="1" parent="WIyWlLk6GJQsqaUBKTNV-1">
          <mxGeometry x="170" y="420" width="120" height="60" as="geometry" />
        </mxCell>
        <mxCell id="gm-yubCqo1Sg5wJiPhqE-14" style="edgeStyle=orthogonalEdgeStyle;rounded=0;orthogonalLoop=1;jettySize=auto;html=1;entryX=0.575;entryY=-0.05;entryDx=0;entryDy=0;entryPerimeter=0;" edge="1" parent="WIyWlLk6GJQsqaUBKTNV-1" source="gm-yubCqo1Sg5wJiPhqE-10" target="gm-yubCqo1Sg5wJiPhqE-8">
          <mxGeometry relative="1" as="geometry" />
        </mxCell>
        <mxCell id="gm-yubCqo1Sg5wJiPhqE-19" style="edgeStyle=orthogonalEdgeStyle;rounded=0;orthogonalLoop=1;jettySize=auto;html=1;entryX=0.5;entryY=0;entryDx=0;entryDy=0;" edge="1" parent="WIyWlLk6GJQsqaUBKTNV-1" source="gm-yubCqo1Sg5wJiPhqE-15" target="gm-yubCqo1Sg5wJiPhqE-18">
          <mxGeometry relative="1" as="geometry" />
        </mxCell>
        <mxCell id="gm-yubCqo1Sg5wJiPhqE-15" value="Leer (velocidad)" style="shape=parallelogram;perimeter=parallelogramPerimeter;whiteSpace=wrap;html=1;fixedSize=1;" vertex="1" parent="WIyWlLk6GJQsqaUBKTNV-1">
          <mxGeometry x="150" y="600" width="120" height="60" as="geometry" />
        </mxCell>
        <mxCell id="gm-yubCqo1Sg5wJiPhqE-21" style="edgeStyle=orthogonalEdgeStyle;rounded=0;orthogonalLoop=1;jettySize=auto;html=1;" edge="1" parent="WIyWlLk6GJQsqaUBKTNV-1" source="gm-yubCqo1Sg5wJiPhqE-18" target="gm-yubCqo1Sg5wJiPhqE-20">
          <mxGeometry relative="1" as="geometry" />
        </mxCell>
        <mxCell id="gm-yubCqo1Sg5wJiPhqE-18" value="tiempo=distancia/velocidad" style="whiteSpace=wrap;html=1;" vertex="1" parent="WIyWlLk6GJQsqaUBKTNV-1">
          <mxGeometry x="130" y="690" width="160" height="60" as="geometry" />
        </mxCell>
        <mxCell id="gm-yubCqo1Sg5wJiPhqE-20" value="Imprimir (&quot;El tiempo que se emplearÃ¡ es de: &quot;+ tiempo)" style="shape=parallelogram;perimeter=parallelogramPerimeter;whiteSpace=wrap;html=1;fixedSize=1;" vertex="1" parent="WIyWlLk6GJQsqaUBKTNV-1">
          <mxGeometry x="40" y="780" width="340" height="60" as="geometry" />
        </mxCell>
      </root>
    </mxGraphModel>
  </diagram>
</mxfile>
